<svg width="1200" height="675" viewBox="0 0 1200 675" fill="none" xmlns="http://www.w3.org/2000/svg" role="img" aria-label="Vibe Code Website Bootcamp — สร้างเว็บไซต์ด้วย AI">
  <defs>
    <linearGradient id="bg" x1="0" y1="0" x2="1200" y2="675" gradientUnits="userSpaceOnUse">
      <stop stop-color="#0c1322"/>
      <stop offset="1" stop-color="#131c30"/>
    </linearGradient>
    <linearGradient id="brand" x1="0" y1="0" x2="1" y2="1">
      <stop stop-color="#f85a20"/>
      <stop offset="1" stop-color="#f82020"/>
    </linearGradient>
    <radialGradient id="glow" cx="0.82" cy="0.12" r="0.55">
      <stop stop-color="#f85a20" stop-opacity="0.16"/>
      <stop offset="1" stop-color="#f85a20" stop-opacity="0"/>
    </radialGradient>
  </defs>

  <rect width="1200" height="675" fill="url(#bg)"/>
  <rect width="1200" height="675" fill="url(#glow)"/>

  <!-- app window -->
  <rect x="210" y="128" width="780" height="440" rx="20" fill="#161f33" stroke="#2b3650" stroke-width="1.5"/>

  <!-- title bar -->
  <path d="M210 148a20 20 0 0 1 20-20h740a20 20 0 0 1 20 20v26H210z" fill="#1d2840"/>
  <circle cx="244" cy="151" r="6" fill="#ff5f57"/>
  <circle cx="266" cy="151" r="6" fill="#febc2e"/>
  <circle cx="288" cy="151" r="6" fill="#28c840"/>
  <rect x="328" y="140" width="470" height="22" rx="11" fill="#222d45"/>
  <circle cx="345" cy="151" r="4" fill="#4a5a80"/>
  <rect x="360" y="147" width="150" height="8" rx="4" fill="#4a5a80"/>
  <circle cx="918" cy="151" r="5" fill="#2b3650"/>
  <circle cx="940" cy="151" r="5" fill="#2b3650"/>
  <line x1="210" y1="174" x2="990" y2="174" stroke="#2b3650" stroke-width="1.5"/>

  <!-- divider between prompt panel and preview -->
  <line x1="478" y1="190" x2="478" y2="552" stroke="#2b3650" stroke-width="1.5" opacity="0.7"/>

  <!-- left: AI prompt panel -->
  <rect x="240" y="198" width="112" height="28" rx="14" fill="#2a1c20" stroke="#f8431f" stroke-opacity="0.45" stroke-width="1.5"/>
  <path d="M257 205l2.4 5.6 5.6 2.4-5.6 2.4-2.4 5.6-2.4-5.6-5.6-2.4 5.6-2.4z" fill="#ff8a5c"/>
  <rect x="274" y="208" width="62" height="8" rx="4" fill="#ff8a5c"/>

  <rect x="240" y="248" width="210" height="11" rx="5" fill="#33415f"/>
  <rect x="240" y="272" width="168" height="11" rx="5" fill="#2b3650"/>
  <rect x="240" y="296" width="196" height="11" rx="5" fill="#2b3650"/>
  <rect x="240" y="330" width="128" height="11" rx="5" fill="#33415f"/>
  <rect x="240" y="354" width="176" height="11" rx="5" fill="#2b3650"/>
  <rect x="240" y="378" width="148" height="11" rx="5" fill="#2b3650"/>

  <!-- generate button -->
  <rect x="240" y="506" width="172" height="42" rx="11" fill="url(#brand)"/>
  <path d="M268 522l1.8 4.2 4.2 1.8-4.2 1.8-1.8 4.2-1.8-4.2-4.2-1.8 4.2-1.8z" fill="#ffffff"/>
  <rect x="284" y="523" width="100" height="8" rx="4" fill="#ffffff" opacity="0.95"/>

  <!-- right: rendered website preview -->
  <!-- hero card -->
  <rect x="504" y="192" width="458" height="140" rx="14" fill="#1b2438" stroke="#2b3650" stroke-width="1.5"/>
  <rect x="528" y="216" width="64" height="8" rx="4" fill="url(#brand)"/>
  <rect x="528" y="236" width="250" height="16" rx="8" fill="#e8edf6" opacity="0.92"/>
  <rect x="528" y="262" width="300" height="10" rx="5" fill="#46557a"/>
  <rect x="528" y="280" width="238" height="10" rx="5" fill="#38465f"/>
  <rect x="528" y="300" width="104" height="22" rx="11" fill="url(#brand)"/>
  <rect x="812" y="216" width="126" height="96" rx="10" fill="#243150" stroke="#33415f" stroke-width="1.5"/>
  <path d="M863 256l22 12-22 12z" fill="#46557a"/>

  <!-- feature cards row -->
  <rect x="504" y="352" width="142" height="118" rx="12" fill="#1b2438" stroke="#2b3650" stroke-width="1.5"/>
  <rect x="662" y="352" width="142" height="118" rx="12" fill="#1b2438" stroke="#2b3650" stroke-width="1.5"/>
  <rect x="820" y="352" width="142" height="118" rx="12" fill="#1b2438" stroke="#2b3650" stroke-width="1.5"/>
  <rect x="524" y="372" width="42" height="42" rx="11" fill="url(#brand)"/>
  <rect x="682" y="372" width="42" height="42" rx="11" fill="#33415f"/>
  <rect x="840" y="372" width="42" height="42" rx="11" fill="#33415f"/>
  <rect x="524" y="428" width="92" height="8" rx="4" fill="#46557a"/>
  <rect x="524" y="444" width="64" height="8" rx="4" fill="#2f3c5a"/>
  <rect x="682" y="428" width="92" height="8" rx="4" fill="#46557a"/>
  <rect x="682" y="444" width="64" height="8" rx="4" fill="#2f3c5a"/>
  <rect x="840" y="428" width="92" height="8" rx="4" fill="#46557a"/>
  <rect x="840" y="444" width="64" height="8" rx="4" fill="#2f3c5a"/>

  <!-- deploy / online status bar -->
  <rect x="504" y="506" width="458" height="42" rx="11" fill="#16203a" stroke="#2b3650" stroke-width="1.5"/>
  <circle cx="528" cy="527" r="6" fill="#28c840"/>
  <rect x="546" y="523" width="150" height="8" rx="4" fill="#46557a"/>
  <rect x="858" y="515" width="84" height="24" rx="12" fill="url(#brand)"/>
  <rect x="876" y="523" width="48" height="8" rx="4" fill="#ffffff" opacity="0.95"/>
</svg>
